<?xml version="1.0" ?><!DOCTYPE svg  PUBLIC '-//W3C//DTD SVG 1.1//EN'  'http://www.w3.org/Graphics/SVG/1.1/DTD/svg11.dtd'><svg enable-background="new 0 0 48 48" height="48px" id="Layer_3" version="1.1" viewBox="0 0 48 48" width="48px" xml:space="preserve" xmlns="http://www.w3.org/2000/svg" xmlns:xlink="http://www.w3.org/1999/xlink"><g><path d="M0,48h30V18H0V48z M4,22h22v22H4V22z" fill="#ffffff"/><polygon fill="#ffffff" points="18,0 18,15 22,15 22,4 44,4 44,26 33.312,26 33.312,30 48,30 48,0  "/><polygon fill="#ffffff" points="18.266,30.636 18.273,30.642 12.534,36.381 7.601,31.449 6.002,33.048 11.656,38.702 11.65,38.708    12.518,39.575 12.523,39.569 12.528,39.575 12.915,39.188 12.919,39.191 19.872,32.24 24.081,28.029 22.476,26.425  "/></g></svg>